<svg width="81" height="89" viewBox="0 0 81 89" fill="none" xmlns="http://www.w3.org/2000/svg">
<path d="M10.7011 89H6.32523C9.16319 85.6672 15.4384 78.5416 17.8356 76.7015L19.0723 55.2495C17.2807 57.4244 11.7855 61.6616 4.1373 61.211C3.15432 60.5694 2.85309 58.2349 9.51198 54.029C8.6717 54.4045 6.42037 54.6956 4.1373 52.8555C1.85423 51.0154 0.490741 50.6806 0.0943783 50.7431C-0.111731 50.3989 -0.114902 49.3819 1.52128 48.0675C3.56652 46.4246 5.08856 44.1245 13.8878 45.5327L19.0723 46.7532C18.993 45.83 18.4159 42.1248 16.7416 34.6893C14.3317 33.9226 9.20756 31.1312 7.98993 26.0992C6.4679 19.8091 6.13494 10.6556 5.13612 6.38397C5.3581 5.64856 6.54403 4.99452 9.51198 8.2616C13.2219 12.3455 18.121 21.0765 18.2637 22.4847C19.2784 18.7451 21.2507 11.0405 21.0223 10.1392C20.794 9.23798 20.9272 4.6628 21.0223 2.48787L24.0189 0C24.8116 5.1948 26.1592 15.9599 25.2079 17.462C24.0189 19.3397 22.1163 26.24 22.4493 29.385C22.7156 31.9011 24.0189 37.85 24.6372 40.51C25.7946 36.4105 28.3186 28.2584 29.1557 28.4462L31.8668 24.5501C30.8997 23.4705 30.4685 20.0062 36.4805 14.7864C37.7013 13.8945 40.219 12.0075 40.5234 11.5944C40.9039 11.0781 41.8076 11.5005 41.5222 13.1435C41.2369 14.7864 39.7148 21.452 36.4805 23.0011C33.893 24.2403 33.4364 25.0508 33.5316 25.3012C33.2145 26.193 33.1701 27.789 35.5292 27.038C38.4782 26.0992 36.1 25.5359 41.5222 24.5501C43.3614 23.3922 47.3535 21.1422 48.6092 21.4051H50.2739L50.8923 23.0011C48.7836 23.0323 43.9575 23.8835 41.5222 27.038C39.4136 28.6027 34.8633 31.779 33.5316 31.9668L31.8668 32.4831C31.4071 32.577 30.0784 34.0416 28.4423 39.1487C29.4728 37.6623 32.7896 35.0743 37.8123 36.6139L39.8575 37.1772C38.3672 39.3991 34.0928 44.2653 28.9179 45.9552H26.397L27.0629 60.413C27.5227 61.5865 28.4423 66.1867 28.4423 75.1994C31.74 76.5137 39.1916 79.7902 42.6162 82.3813C42.8382 82.6473 43.3962 82.7944 43.8529 81.2547V79.8935C44.2175 80.003 45.4129 79.9967 47.2774 79.0955L48.7043 78.4383C48.7519 77.3274 49.0183 74.7863 49.7032 73.5095C46.2945 69.2848 38.5067 60.6571 34.6255 59.9436C34.467 59.4585 33.6267 58.7794 31.5339 59.9436L30.2497 58.817V57.0802C31.5973 56.7516 34.6921 55.6813 36.2903 54.029C39.0648 52.0418 44.8802 47.4573 45.9457 45.0163C47.2774 41.9652 48.419 37.8344 41.5222 33.9852L38.9062 31.9668L40.7612 28.4462C41.4747 28.368 43.206 28.4462 44.4236 29.385C44.6051 29.5249 44.7494 29.6367 44.8623 29.7247C46.4292 30.0343 49.8871 31.6031 51.6533 35.5343C52.3192 35.8316 53.651 35.722 53.651 32.9056C53.9522 31.8416 54.5356 29.7136 54.4595 29.7136C54.3644 29.7136 51.463 24.5501 56.4096 20.7009C56.5999 20.1064 57.7414 18.4384 60.7855 16.5232L62.1648 13.7068C62.6246 13.785 63.6012 14.1104 63.8295 14.7864C64.1149 15.6313 65.2565 22.6725 64.543 23.9868C63.9722 25.0383 62.7197 26.9284 62.1648 27.7421C60.2464 28.6027 56.4096 30.7557 56.4096 32.4831C55.9181 33.8601 54.8876 36.8111 54.6973 37.5997C54.4595 38.5854 53.0802 43.9367 55.934 42.6224C58.7878 41.308 59.4061 42.106 60.7855 39.8528C62.1648 37.5997 59.6915 36.8956 68.4432 31.9668C75.4446 28.0237 77.3218 26.3808 77.3852 26.0522C76.3705 31.4974 72.6383 42.6505 65.8272 43.702C64.8601 44.2809 62.5929 45.0915 61.2611 43.702C60.8806 44.1871 58.7022 45.3168 53.0326 45.9552C51.907 48.2396 49.1705 53.0526 47.2299 54.029C47.1189 54.3732 47.5723 54.9584 50.2739 54.5454C52.9756 54.1323 55.173 52.3391 55.934 51.4942C55.8547 49.9139 57.3229 46.7532 63.8295 46.7532H71.1068C70.6153 48.6152 68.1388 52.6771 62.1648 54.029C60.944 53.8569 58.2456 53.6159 57.2182 54.029C55.934 54.5454 50.702 57.6904 44.8041 57.0802L42.9492 57.7373C48.3397 60.8354 60.0625 67.8484 63.8295 71.1155C63.9689 71.2364 64.1004 71.3504 64.2243 71.458C65.6444 71.7784 68.5695 72.5021 69.3945 72.9462C70.2316 73.3968 72.502 75.4184 73.5325 76.3729L72.4386 77.0301L67.5871 75.7157C71.2019 77.1865 78.6694 80.3535 79.6207 81.2547C80.5719 82.156 80.9366 83.2889 81 83.7426L79.6207 85.057C78.3364 84.2433 75.007 82.3438 71.9629 81.2547L71.1068 82.8507C67.27 82.5534 59.3586 82.1372 58.4073 82.8507C57.456 83.5642 52.5887 86.0271 50.2739 87.1693L47.2299 86.4652V85.5264C47.3884 84.6971 47.9053 82.9071 48.7043 82.3813L44.1858 83.1793L42.9492 86.4652C36.6866 85.4325 23.2673 83.7989 19.6906 85.5264L19.0723 84.1181C17.0429 85.057 12.5275 87.3477 10.7011 89Z" fill="#FFF3E0"/>
</svg>
