<svg width="41" height="42" viewBox="0 0 41 42" fill="none" xmlns="http://www.w3.org/2000/svg">
<path d="M10.143 24.1863C9.22698 24.1783 8.44581 23.8344 7.79942 23.1545C7.15304 22.4746 6.83399 21.6613 6.84227 20.7145C6.85055 19.7678 7.18378 18.9601 7.84196 18.2917C8.50013 17.6232 9.28721 17.2929 10.2032 17.3009C11.1191 17.3089 11.9003 17.6529 12.5467 18.3328C13.1931 19.0127 13.5121 19.826 13.5039 20.7728C13.4956 21.7195 13.1624 22.5271 12.5042 23.1956C11.846 23.8641 11.0589 24.1944 10.143 24.1863ZM20.1353 24.2737C19.2194 24.2657 18.4382 23.9218 17.7918 23.2419C17.1454 22.562 16.8264 21.7487 16.8347 20.8019C16.8429 19.8552 17.1762 19.0475 17.8343 18.3791C18.4925 17.7106 19.2796 17.3803 20.1956 17.3883C21.1115 17.3963 21.8927 17.7403 22.5391 18.4202C23.1855 19.1001 23.5045 19.9134 23.4963 20.8602C23.488 21.8069 23.1547 22.6145 22.4966 23.283C21.8384 23.9515 21.0513 24.2818 20.1353 24.2737ZM30.1277 24.3611C29.2118 24.3531 28.4306 24.0092 27.7842 23.3293C27.1378 22.6494 26.8188 21.8361 26.8271 20.8893C26.8353 19.9426 27.1686 19.1349 27.8267 18.4665C28.4849 17.798 29.272 17.4677 30.188 17.4757C31.1039 17.4837 31.8851 17.8277 32.5315 18.5076C33.1779 19.1875 33.4969 20.0008 33.4887 20.9476C33.4804 21.8943 33.1471 22.7019 32.489 23.3704C31.8308 24.0389 31.0437 24.3692 30.1277 24.3611Z" fill="#FFF3E0"/>
</svg>
